<mxfile host="app.diagrams.net" agent="Mozilla/5.0 (Windows NT 10.0; Win64; x64) AppleWebKit/537.36 (KHTML, like Gecko) Chrome/138.0.0.0 Safari/537.36" version="28.0.6">
  <diagram name="Página-1" id="D9-A0T2UJS10NvBj5FaB">
    <mxGraphModel dx="1226" dy="715" grid="1" gridSize="10" guides="1" tooltips="1" connect="1" arrows="1" fold="1" page="1" pageScale="1" pageWidth="827" pageHeight="1169" math="0" shadow="0">
      <root>
        <mxCell id="0" />
        <mxCell id="1" parent="0" />
        <mxCell id="CDfKyvbbwTVsAQRms2de-5" style="edgeStyle=orthogonalEdgeStyle;rounded=0;orthogonalLoop=1;jettySize=auto;html=1;exitX=1;exitY=0.5;exitDx=0;exitDy=0;entryX=0;entryY=0.5;entryDx=0;entryDy=0;" edge="1" parent="1" source="CDfKyvbbwTVsAQRms2de-4" target="CDfKyvbbwTVsAQRms2de-33">
          <mxGeometry relative="1" as="geometry">
            <mxPoint x="710" y="610" as="targetPoint" />
          </mxGeometry>
        </mxCell>
        <mxCell id="CDfKyvbbwTVsAQRms2de-18" style="edgeStyle=orthogonalEdgeStyle;rounded=0;orthogonalLoop=1;jettySize=auto;html=1;exitX=0.5;exitY=0;exitDx=0;exitDy=0;" edge="1" parent="1" source="CDfKyvbbwTVsAQRms2de-1" target="CDfKyvbbwTVsAQRms2de-11">
          <mxGeometry relative="1" as="geometry" />
        </mxCell>
        <mxCell id="CDfKyvbbwTVsAQRms2de-20" style="edgeStyle=orthogonalEdgeStyle;rounded=0;orthogonalLoop=1;jettySize=auto;html=1;exitX=0.5;exitY=1;exitDx=0;exitDy=0;entryX=0.5;entryY=0;entryDx=0;entryDy=0;" edge="1" parent="1" source="CDfKyvbbwTVsAQRms2de-1" target="CDfKyvbbwTVsAQRms2de-8">
          <mxGeometry relative="1" as="geometry">
            <Array as="points">
              <mxPoint x="280" y="240" />
              <mxPoint x="280" y="260" />
              <mxPoint x="370" y="260" />
            </Array>
          </mxGeometry>
        </mxCell>
        <mxCell id="CDfKyvbbwTVsAQRms2de-21" style="edgeStyle=orthogonalEdgeStyle;rounded=0;orthogonalLoop=1;jettySize=auto;html=1;exitX=0;exitY=0.75;exitDx=0;exitDy=0;entryX=1;entryY=0.5;entryDx=0;entryDy=0;" edge="1" parent="1" source="CDfKyvbbwTVsAQRms2de-1" target="CDfKyvbbwTVsAQRms2de-9">
          <mxGeometry relative="1" as="geometry" />
        </mxCell>
        <mxCell id="CDfKyvbbwTVsAQRms2de-22" style="edgeStyle=orthogonalEdgeStyle;rounded=0;orthogonalLoop=1;jettySize=auto;html=1;exitX=0;exitY=0;exitDx=0;exitDy=0;entryX=1;entryY=0.5;entryDx=0;entryDy=0;" edge="1" parent="1" source="CDfKyvbbwTVsAQRms2de-1" target="CDfKyvbbwTVsAQRms2de-12">
          <mxGeometry relative="1" as="geometry" />
        </mxCell>
        <mxCell id="CDfKyvbbwTVsAQRms2de-59" style="edgeStyle=orthogonalEdgeStyle;rounded=0;orthogonalLoop=1;jettySize=auto;html=1;exitX=0.5;exitY=1;exitDx=0;exitDy=0;entryX=0.5;entryY=0;entryDx=0;entryDy=0;" edge="1" parent="1" source="CDfKyvbbwTVsAQRms2de-1" target="CDfKyvbbwTVsAQRms2de-51">
          <mxGeometry relative="1" as="geometry" />
        </mxCell>
        <mxCell id="CDfKyvbbwTVsAQRms2de-1" value="Usuario" style="rounded=0;whiteSpace=wrap;html=1;fillColor=#ffcd28;strokeColor=#d79b00;gradientColor=#ffa500;" vertex="1" parent="1">
          <mxGeometry x="180" y="180" width="120" height="60" as="geometry" />
        </mxCell>
        <mxCell id="CDfKyvbbwTVsAQRms2de-24" style="edgeStyle=orthogonalEdgeStyle;rounded=0;orthogonalLoop=1;jettySize=auto;html=1;exitX=0;exitY=0;exitDx=0;exitDy=0;" edge="1" parent="1" source="CDfKyvbbwTVsAQRms2de-3" target="CDfKyvbbwTVsAQRms2de-13">
          <mxGeometry relative="1" as="geometry" />
        </mxCell>
        <mxCell id="CDfKyvbbwTVsAQRms2de-39" style="edgeStyle=orthogonalEdgeStyle;rounded=0;orthogonalLoop=1;jettySize=auto;html=1;exitX=0.5;exitY=1;exitDx=0;exitDy=0;entryX=1;entryY=0;entryDx=0;entryDy=0;" edge="1" parent="1" source="CDfKyvbbwTVsAQRms2de-40" target="CDfKyvbbwTVsAQRms2de-4">
          <mxGeometry relative="1" as="geometry">
            <Array as="points">
              <mxPoint x="830" y="460" />
              <mxPoint x="800" y="460" />
              <mxPoint x="800" y="610" />
              <mxPoint x="740" y="610" />
            </Array>
          </mxGeometry>
        </mxCell>
        <mxCell id="CDfKyvbbwTVsAQRms2de-3" value="Artista" style="rounded=0;whiteSpace=wrap;html=1;fillColor=#ffcd28;strokeColor=#d79b00;gradientColor=#ffa500;" vertex="1" parent="1">
          <mxGeometry x="770" y="210" width="120" height="60" as="geometry" />
        </mxCell>
        <mxCell id="CDfKyvbbwTVsAQRms2de-36" style="edgeStyle=orthogonalEdgeStyle;rounded=0;orthogonalLoop=1;jettySize=auto;html=1;exitX=0;exitY=0.75;exitDx=0;exitDy=0;entryX=1;entryY=0.5;entryDx=0;entryDy=0;" edge="1" parent="1" source="CDfKyvbbwTVsAQRms2de-4" target="CDfKyvbbwTVsAQRms2de-30">
          <mxGeometry relative="1" as="geometry" />
        </mxCell>
        <mxCell id="CDfKyvbbwTVsAQRms2de-38" style="edgeStyle=orthogonalEdgeStyle;rounded=0;orthogonalLoop=1;jettySize=auto;html=1;exitX=0.75;exitY=1;exitDx=0;exitDy=0;entryX=0;entryY=0;entryDx=0;entryDy=0;" edge="1" parent="1" source="CDfKyvbbwTVsAQRms2de-4" target="CDfKyvbbwTVsAQRms2de-31">
          <mxGeometry relative="1" as="geometry" />
        </mxCell>
        <mxCell id="CDfKyvbbwTVsAQRms2de-4" value="Cancion" style="rounded=0;whiteSpace=wrap;html=1;fillColor=#ffcd28;strokeColor=#d79b00;gradientColor=#ffa500;" vertex="1" parent="1">
          <mxGeometry x="620" y="650" width="120" height="60" as="geometry" />
        </mxCell>
        <mxCell id="CDfKyvbbwTVsAQRms2de-8" value="Fecha de nacimiento" style="ellipse;whiteSpace=wrap;html=1;" vertex="1" parent="1">
          <mxGeometry x="310" y="280" width="120" height="80" as="geometry" />
        </mxCell>
        <mxCell id="CDfKyvbbwTVsAQRms2de-9" value="Contraseña" style="ellipse;whiteSpace=wrap;html=1;" vertex="1" parent="1">
          <mxGeometry x="20" y="200" width="120" height="80" as="geometry" />
        </mxCell>
        <mxCell id="CDfKyvbbwTVsAQRms2de-10" value="Correo" style="ellipse;whiteSpace=wrap;html=1;" vertex="1" parent="1">
          <mxGeometry x="354" y="120" width="120" height="80" as="geometry" />
        </mxCell>
        <mxCell id="CDfKyvbbwTVsAQRms2de-11" value="Nonbre Usuario" style="ellipse;whiteSpace=wrap;html=1;" vertex="1" parent="1">
          <mxGeometry x="210" y="30" width="120" height="80" as="geometry" />
        </mxCell>
        <mxCell id="CDfKyvbbwTVsAQRms2de-12" value="Id Usuario" style="ellipse;whiteSpace=wrap;html=1;fillColor=#f5f5f5;gradientColor=#b3b3b3;strokeColor=#666666;" vertex="1" parent="1">
          <mxGeometry x="10" y="50" width="120" height="80" as="geometry" />
        </mxCell>
        <mxCell id="CDfKyvbbwTVsAQRms2de-13" value="Id Artista" style="ellipse;whiteSpace=wrap;html=1;fillColor=#f5f5f5;gradientColor=#b3b3b3;strokeColor=#666666;" vertex="1" parent="1">
          <mxGeometry x="600" y="60" width="120" height="80" as="geometry" />
        </mxCell>
        <mxCell id="CDfKyvbbwTVsAQRms2de-14" value="Genero" style="ellipse;whiteSpace=wrap;html=1;" vertex="1" parent="1">
          <mxGeometry x="980" y="60" width="120" height="80" as="geometry" />
        </mxCell>
        <mxCell id="CDfKyvbbwTVsAQRms2de-15" value="Biografia" style="ellipse;whiteSpace=wrap;html=1;" vertex="1" parent="1">
          <mxGeometry x="930" y="320" width="120" height="80" as="geometry" />
        </mxCell>
        <mxCell id="CDfKyvbbwTVsAQRms2de-16" value="Nombre Artista" style="ellipse;whiteSpace=wrap;html=1;" vertex="1" parent="1">
          <mxGeometry x="770" y="50" width="120" height="80" as="geometry" />
        </mxCell>
        <mxCell id="CDfKyvbbwTVsAQRms2de-17" value="Pais" style="ellipse;whiteSpace=wrap;html=1;" vertex="1" parent="1">
          <mxGeometry x="630" y="300" width="120" height="80" as="geometry" />
        </mxCell>
        <mxCell id="CDfKyvbbwTVsAQRms2de-19" style="edgeStyle=orthogonalEdgeStyle;rounded=0;orthogonalLoop=1;jettySize=auto;html=1;exitX=1;exitY=0.25;exitDx=0;exitDy=0;entryX=0.07;entryY=0.571;entryDx=0;entryDy=0;entryPerimeter=0;" edge="1" parent="1" source="CDfKyvbbwTVsAQRms2de-1" target="CDfKyvbbwTVsAQRms2de-10">
          <mxGeometry relative="1" as="geometry" />
        </mxCell>
        <mxCell id="CDfKyvbbwTVsAQRms2de-23" style="edgeStyle=orthogonalEdgeStyle;rounded=0;orthogonalLoop=1;jettySize=auto;html=1;exitX=0.25;exitY=0;exitDx=0;exitDy=0;entryX=0.421;entryY=1.109;entryDx=0;entryDy=0;entryPerimeter=0;" edge="1" parent="1" source="CDfKyvbbwTVsAQRms2de-3" target="CDfKyvbbwTVsAQRms2de-16">
          <mxGeometry relative="1" as="geometry" />
        </mxCell>
        <mxCell id="CDfKyvbbwTVsAQRms2de-25" style="edgeStyle=orthogonalEdgeStyle;rounded=0;orthogonalLoop=1;jettySize=auto;html=1;exitX=1;exitY=0;exitDx=0;exitDy=0;entryX=0.299;entryY=1.037;entryDx=0;entryDy=0;entryPerimeter=0;" edge="1" parent="1" source="CDfKyvbbwTVsAQRms2de-3" target="CDfKyvbbwTVsAQRms2de-14">
          <mxGeometry relative="1" as="geometry" />
        </mxCell>
        <mxCell id="CDfKyvbbwTVsAQRms2de-26" style="edgeStyle=orthogonalEdgeStyle;rounded=0;orthogonalLoop=1;jettySize=auto;html=1;exitX=1;exitY=1;exitDx=0;exitDy=0;entryX=0.35;entryY=0.071;entryDx=0;entryDy=0;entryPerimeter=0;" edge="1" parent="1" source="CDfKyvbbwTVsAQRms2de-3" target="CDfKyvbbwTVsAQRms2de-15">
          <mxGeometry relative="1" as="geometry" />
        </mxCell>
        <mxCell id="CDfKyvbbwTVsAQRms2de-27" style="edgeStyle=orthogonalEdgeStyle;rounded=0;orthogonalLoop=1;jettySize=auto;html=1;exitX=0;exitY=1;exitDx=0;exitDy=0;entryX=0.64;entryY=0.037;entryDx=0;entryDy=0;entryPerimeter=0;" edge="1" parent="1" source="CDfKyvbbwTVsAQRms2de-3" target="CDfKyvbbwTVsAQRms2de-17">
          <mxGeometry relative="1" as="geometry" />
        </mxCell>
        <mxCell id="CDfKyvbbwTVsAQRms2de-29" value="Id Cancion" style="ellipse;whiteSpace=wrap;html=1;rotation=0;fillColor=#f5f5f5;gradientColor=#b3b3b3;strokeColor=#666666;" vertex="1" parent="1">
          <mxGeometry x="620" y="480" width="120" height="80" as="geometry" />
        </mxCell>
        <mxCell id="CDfKyvbbwTVsAQRms2de-30" value="Duracion" style="ellipse;whiteSpace=wrap;html=1;" vertex="1" parent="1">
          <mxGeometry x="480" y="760" width="120" height="80" as="geometry" />
        </mxCell>
        <mxCell id="CDfKyvbbwTVsAQRms2de-31" value="Genero" style="ellipse;whiteSpace=wrap;html=1;" vertex="1" parent="1">
          <mxGeometry x="740" y="740" width="120" height="80" as="geometry" />
        </mxCell>
        <mxCell id="CDfKyvbbwTVsAQRms2de-32" value="Titulo" style="ellipse;whiteSpace=wrap;html=1;" vertex="1" parent="1">
          <mxGeometry x="480" y="540" width="120" height="80" as="geometry" />
        </mxCell>
        <mxCell id="CDfKyvbbwTVsAQRms2de-33" value="Id Artista" style="ellipse;whiteSpace=wrap;html=1;" vertex="1" parent="1">
          <mxGeometry x="820" y="620" width="120" height="80" as="geometry" />
        </mxCell>
        <mxCell id="CDfKyvbbwTVsAQRms2de-34" style="edgeStyle=orthogonalEdgeStyle;rounded=0;orthogonalLoop=1;jettySize=auto;html=1;exitX=0.25;exitY=0;exitDx=0;exitDy=0;entryX=0.592;entryY=1.018;entryDx=0;entryDy=0;entryPerimeter=0;" edge="1" parent="1" source="CDfKyvbbwTVsAQRms2de-4" target="CDfKyvbbwTVsAQRms2de-29">
          <mxGeometry relative="1" as="geometry" />
        </mxCell>
        <mxCell id="CDfKyvbbwTVsAQRms2de-35" style="edgeStyle=orthogonalEdgeStyle;rounded=0;orthogonalLoop=1;jettySize=auto;html=1;exitX=0;exitY=0.25;exitDx=0;exitDy=0;entryX=0.732;entryY=1.026;entryDx=0;entryDy=0;entryPerimeter=0;" edge="1" parent="1" source="CDfKyvbbwTVsAQRms2de-4" target="CDfKyvbbwTVsAQRms2de-32">
          <mxGeometry relative="1" as="geometry" />
        </mxCell>
        <mxCell id="CDfKyvbbwTVsAQRms2de-41" value="" style="edgeStyle=orthogonalEdgeStyle;rounded=0;orthogonalLoop=1;jettySize=auto;html=1;exitX=0.5;exitY=1;exitDx=0;exitDy=0;entryX=1;entryY=0;entryDx=0;entryDy=0;" edge="1" parent="1" source="CDfKyvbbwTVsAQRms2de-3" target="CDfKyvbbwTVsAQRms2de-40">
          <mxGeometry relative="1" as="geometry">
            <mxPoint x="830" y="270" as="sourcePoint" />
            <mxPoint x="740" y="650" as="targetPoint" />
            <Array as="points" />
          </mxGeometry>
        </mxCell>
        <mxCell id="CDfKyvbbwTVsAQRms2de-40" value="Interpreta" style="rhombus;whiteSpace=wrap;html=1;fillColor=#d5e8d4;strokeColor=#82b366;gradientColor=#97d077;" vertex="1" parent="1">
          <mxGeometry x="790" y="400" width="80" height="80" as="geometry" />
        </mxCell>
        <mxCell id="CDfKyvbbwTVsAQRms2de-42" value="1" style="text;html=1;align=center;verticalAlign=middle;whiteSpace=wrap;rounded=0;" vertex="1" parent="1">
          <mxGeometry x="790" y="300" width="60" height="30" as="geometry" />
        </mxCell>
        <mxCell id="CDfKyvbbwTVsAQRms2de-43" value="n" style="text;html=1;align=center;verticalAlign=middle;whiteSpace=wrap;rounded=0;" vertex="1" parent="1">
          <mxGeometry x="810" y="300" width="60" height="30" as="geometry" />
        </mxCell>
        <mxCell id="CDfKyvbbwTVsAQRms2de-48" style="edgeStyle=orthogonalEdgeStyle;rounded=0;orthogonalLoop=1;jettySize=auto;html=1;exitX=0.5;exitY=1;exitDx=0;exitDy=0;entryX=0.5;entryY=0;entryDx=0;entryDy=0;" edge="1" parent="1" source="CDfKyvbbwTVsAQRms2de-44" target="CDfKyvbbwTVsAQRms2de-45">
          <mxGeometry relative="1" as="geometry" />
        </mxCell>
        <mxCell id="CDfKyvbbwTVsAQRms2de-49" style="edgeStyle=orthogonalEdgeStyle;rounded=0;orthogonalLoop=1;jettySize=auto;html=1;exitX=0;exitY=0.5;exitDx=0;exitDy=0;entryX=1;entryY=0.5;entryDx=0;entryDy=0;" edge="1" parent="1" source="CDfKyvbbwTVsAQRms2de-44" target="CDfKyvbbwTVsAQRms2de-47">
          <mxGeometry relative="1" as="geometry" />
        </mxCell>
        <mxCell id="CDfKyvbbwTVsAQRms2de-44" value="Lista de reproduccion" style="rounded=0;whiteSpace=wrap;html=1;fillColor=#ffcd28;strokeColor=#d79b00;gradientColor=#ffa500;" vertex="1" parent="1">
          <mxGeometry x="200" y="540" width="120" height="60" as="geometry" />
        </mxCell>
        <mxCell id="CDfKyvbbwTVsAQRms2de-45" value="Id Lista" style="ellipse;whiteSpace=wrap;html=1;rotation=0;fillColor=#f5f5f5;gradientColor=#b3b3b3;strokeColor=#666666;" vertex="1" parent="1">
          <mxGeometry x="220" y="640" width="120" height="80" as="geometry" />
        </mxCell>
        <mxCell id="CDfKyvbbwTVsAQRms2de-47" value="Id Cancion" style="ellipse;whiteSpace=wrap;html=1;rotation=0;fillColor=#f5f5f5;gradientColor=#b3b3b3;strokeColor=#666666;" vertex="1" parent="1">
          <mxGeometry x="30" y="540" width="120" height="80" as="geometry" />
        </mxCell>
        <mxCell id="CDfKyvbbwTVsAQRms2de-54" style="edgeStyle=orthogonalEdgeStyle;rounded=0;orthogonalLoop=1;jettySize=auto;html=1;exitX=0.5;exitY=1;exitDx=0;exitDy=0;entryX=0.25;entryY=0;entryDx=0;entryDy=0;" edge="1" parent="1" source="CDfKyvbbwTVsAQRms2de-51" target="CDfKyvbbwTVsAQRms2de-44">
          <mxGeometry relative="1" as="geometry" />
        </mxCell>
        <mxCell id="CDfKyvbbwTVsAQRms2de-51" value="Crea" style="rhombus;whiteSpace=wrap;html=1;fillColor=#d5e8d4;gradientColor=#97d077;strokeColor=#82b366;" vertex="1" parent="1">
          <mxGeometry x="200" y="350" width="80" height="80" as="geometry" />
        </mxCell>
        <mxCell id="CDfKyvbbwTVsAQRms2de-53" style="edgeStyle=orthogonalEdgeStyle;rounded=0;orthogonalLoop=1;jettySize=auto;html=1;exitX=0.5;exitY=1;exitDx=0;exitDy=0;entryX=0.587;entryY=0.107;entryDx=0;entryDy=0;entryPerimeter=0;" edge="1" parent="1">
          <mxGeometry relative="1" as="geometry">
            <mxPoint x="50" y="60" as="sourcePoint" />
            <mxPoint x="56.95999999999981" y="178.55999999999995" as="targetPoint" />
          </mxGeometry>
        </mxCell>
        <mxCell id="CDfKyvbbwTVsAQRms2de-55" value="1" style="text;html=1;align=center;verticalAlign=middle;whiteSpace=wrap;rounded=0;" vertex="1" parent="1">
          <mxGeometry x="190" y="250" width="60" height="30" as="geometry" />
        </mxCell>
        <mxCell id="CDfKyvbbwTVsAQRms2de-60" value="n" style="text;html=1;align=center;verticalAlign=middle;whiteSpace=wrap;rounded=0;" vertex="1" parent="1">
          <mxGeometry x="220" y="250" width="60" height="30" as="geometry" />
        </mxCell>
      </root>
    </mxGraphModel>
  </diagram>
</mxfile>
